<svg xmlns="http://www.w3.org/2000/svg" width="90" height="82" viewBox="0 0 90 82" fill="none"><metadata><rdf:RDF xmlns:rdf="http://www.w3.org/1999/02/22-rdf-syntax-ns#" xmlns:dc="http://purl.org/dc/elements/1.1/"><rdf:Description><dc:creator>RealFaviconGenerator</dc:creator><dc:source>https://realfavicongenerator.net</dc:source></rdf:Description></rdf:RDF></metadata><path d="M89.1519 7.92L51.5919 78.24C50.5519 80.16 48.9519 81.12 46.7919 81.12H43.0719C40.9919 81.12 39.4319 80.24 38.3919 78.48C37.4319 76.72 37.3919 74.88 38.2719 72.96L75.8319 2.88C76.8719 0.960001 78.4719 0 80.6319 0H84.3519C86.4319 0 87.9919 0.880002 89.0319 2.64C90.0719 4.32001 90.1119 6.08 89.1519 7.92Z" fill="#E52E00"></path><path d="M51.5113 7.92L13.9513 78.24C12.9113 80.16 11.3113 81.12 9.1513 81.12H5.4313C3.3513 81.12 1.7913 80.24 0.751305 78.48C-0.208696 76.72 -0.248696 74.88 0.631304 72.96L38.1913 2.88C39.2313 0.960001 40.8313 0 42.9913 0H46.7113C48.7913 0 50.3513 0.880002 51.3913 2.64C52.4313 4.32001 52.4713 6.08 51.5113 7.92Z" fill="#E52E00"></path></svg>